<?xml version="1.0" standalone="no"?>
<!DOCTYPE svg PUBLIC "-//W3C//DTD SVG 20010904//EN"
 "http://www.w3.org/TR/2001/REC-SVG-20010904/DTD/svg10.dtd">
<svg version="1.0" xmlns="http://www.w3.org/2000/svg"
 width="946.000000pt" height="946.000000pt" viewBox="0 0 946.000000 946.000000"
 preserveAspectRatio="xMidYMid meet">
<metadata>
Created by potrace 1.11, written by Peter Selinger 2001-2013
</metadata>
<g transform="translate(0.000000,946.000000) scale(0.100000,-0.100000)"
fill="#000000" stroke="none">
<path d="M1820 9453 c-73 -12 -183 -49 -250 -84 -167 -86 -281 -242 -326 -444
-11 -51 -13 -269 -2 -316 51 -219 165 -376 336 -463 126 -64 338 -92 486 -65
22 4 55 9 71 12 17 2 47 12 68 20 31 14 37 20 33 39 -3 13 -10 52 -16 88 -13
83 -31 160 -36 160 -2 0 -12 -4 -22 -10 -33 -19 -130 -37 -196 -38 -161 0
-294 76 -351 202 -44 95 -56 225 -30 326 9 36 17 71 17 78 1 6 5 12 8 12 4 0
13 14 20 30 7 17 16 30 21 30 5 0 9 6 9 13 0 14 60 64 108 90 85 46 223 54
357 22 17 -4 36 -12 43 -18 21 -16 27 1 46 118 10 61 20 119 22 130 4 17 -3
24 -43 38 -26 9 -59 19 -73 21 -14 3 -25 5 -25 6 0 4 -251 7 -275 3z"/>
<path d="M2520 9404 c-68 -25 -129 -49 -134 -54 -5 -5 -9 -260 -9 -622 l0
-613 149 0 149 0 0 312 c0 254 3 316 15 340 65 124 225 130 276 10 19 -43 19
-46 24 -634 l0 -32 148 2 147 2 -1 350 c-2 297 -4 359 -19 410 -30 106 -80
175 -155 212 -46 22 -54 24 -131 28 -105 6 -211 -35 -273 -104 -11 -11 -22
-21 -25 -21 -4 0 -6 102 -6 227 0 195 -2 228 -15 229 -8 1 -71 -18 -140 -42z"/>
<path d="M3797 9114 c-87 -21 -160 -59 -220 -117 -56 -52 -120 -156 -131 -212
-4 -16 -9 -41 -12 -55 -14 -65 -9 -216 10 -287 3 -13 8 -31 10 -40 18 -80 124
-221 179 -239 9 -3 17 -9 17 -14 0 -11 100 -49 175 -66 58 -13 258 -13 315 0
14 3 41 9 60 12 19 4 55 16 80 27 25 11 49 19 54 18 7 -2 3 51 -8 94 -11 43
-22 101 -24 127 -2 16 -5 15 -45 -2 -190 -84 -445 -53 -495 60 -32 73 -33 80
-9 81 12 0 159 2 327 2 l305 2 2 95 c1 54 -5 123 -13 160 -19 87 -18 83 -27
98 -5 6 -5 12 0 12 4 0 3 4 -2 8 -6 4 -19 24 -30 45 -42 79 -121 146 -211 179
-74 26 -224 32 -307 12z m207 -223 c40 -22 66 -61 81 -118 11 -42 10 -49 -4
-54 -13 -4 -297 -5 -337 0 -22 2 9 93 48 142 43 54 144 68 212 30z"/>
<path d="M6547 9114 c-278 -66 -416 -327 -352 -669 2 -11 4 -20 5 -20 1 0 3
-11 6 -24 9 -47 70 -147 120 -196 44 -43 123 -93 159 -102 6 -1 34 -9 62 -17
74 -20 241 -14 314 11 217 75 332 259 324 518 -3 97 -9 144 -22 175 -3 8 -7
20 -9 25 -15 61 -91 170 -145 211 -120 90 -305 125 -462 88z m222 -239 c59
-30 96 -106 105 -215 3 -25 5 -49 6 -55 1 -5 2 -12 1 -15 -1 -3 -3 -25 -5 -50
-9 -136 -77 -227 -176 -234 -133 -10 -211 99 -211 296 1 133 33 219 99 266 15
11 36 22 47 24 35 8 104 -1 134 -17z"/>
<path d="M7784 9096 c-76 -32 -118 -63 -162 -120 -12 -16 -22 -27 -23 -25 -1
2 -2 33 -3 69 l-3 65 -140 2 -141 3 4 -78 c2 -42 4 -262 5 -489 l2 -412 148 1
147 0 0 291 c1 161 3 308 7 327 23 128 188 180 264 84 38 -48 43 -97 45 -404
l1 -295 148 -2 148 -3 -1 345 c-1 270 -5 357 -17 402 -45 173 -139 254 -298
259 -63 1 -91 -3 -131 -20z"/>
<path d="M5952 9088 c-54 -26 -97 -71 -125 -130 -25 -54 -33 -59 -34 -20 0 15
-2 55 -3 89 l-3 62 -137 0 -137 0 2 -487 2 -487 146 -3 c81 -1 147 1 148 5 0
4 2 125 3 268 3 289 5 300 70 373 47 51 103 71 190 67 76 -3 68 -23 68 155 0
61 -1 115 -1 121 -2 18 -143 8 -189 -13z"/>
<path d="M4454 8961 c22 -69 43 -128 46 -131 3 -3 7 -12 9 -20 7 -31 8 -35 14
-50 3 -8 43 -125 87 -260 45 -135 93 -277 107 -317 l25 -72 181 2 181 2 129
380 c70 209 130 387 132 395 2 8 12 39 24 68 11 28 18 52 16 52 -3 0 1 13 10
30 8 16 15 33 15 39 0 5 -67 9 -163 10 l-164 1 -22 -88 c-36 -140 -62 -246
-66 -262 -2 -8 -4 -15 -5 -15 -1 0 -3 -7 -5 -15 -17 -70 -23 -92 -34 -128 -5
-18 -10 -35 -10 -37 -1 -3 -1 -6 -2 -7 0 -2 -2 -10 -4 -18 -2 -8 -6 -26 -9
-40 -12 -59 -24 -85 -29 -70 -7 18 -113 427 -134 515 -7 33 -18 71 -23 85 -4
14 -11 37 -14 53 l-6 27 -164 -1 -163 -1 41 -127z"/>
<path d="M1241 7823 c-1 -15 -1 -37 -1 -48 1 -58 0 -131 -2 -140 -1 -6 2 -23
6 -39 4 -15 3 -25 -2 -22 -4 2 -6 -10 -5 -27 4 -31 4 -132 1 -152 -1 -6 2 -23
6 -39 4 -15 3 -25 -2 -22 -4 2 -6 -10 -5 -27 4 -31 4 -132 1 -152 -1 -6 2 -23
6 -39 4 -15 3 -25 -2 -22 -4 2 -6 -10 -5 -27 4 -31 4 -132 1 -152 -1 -6 2 -23
6 -39 4 -15 3 -25 -2 -22 -4 2 -6 -10 -5 -27 4 -31 4 -132 1 -152 -1 -6 2 -23
6 -39 4 -15 3 -25 -2 -22 -4 2 -6 -10 -5 -27 4 -31 4 -132 1 -152 -1 -6 2 -23
6 -39 4 -15 3 -25 -2 -22 -4 2 -6 -10 -5 -27 4 -31 4 -132 1 -152 -1 -6 2 -23
6 -39 4 -15 3 -25 -2 -22 -4 2 -6 -10 -5 -27 4 -31 4 -132 1 -152 -1 -6 2 -23
6 -39 4 -15 3 -25 -2 -22 -4 2 -6 -10 -5 -27 4 -31 4 -132 1 -152 -1 -6 2 -23
6 -39 5 -20 4 -26 -5 -20 -7 4 -9 3 -5 -4 3 -6 7 -38 7 -71 1 -34 5 -61 9 -61
5 0 21 -5 37 -12 15 -6 30 -12 33 -13 3 0 39 -12 80 -25 41 -13 77 -24 80 -25
6 -2 39 -14 65 -25 28 -11 477 -160 495 -164 8 -2 47 -14 85 -27 39 -13 72
-24 75 -24 5 -2 29 -11 65 -25 37 -14 150 -51 170 -55 22 -5 157 -50 190 -64
11 -5 38 -14 60 -20 22 -7 49 -16 60 -21 18 -7 373 -123 385 -126 3 0 12 -3
20 -7 15 -6 240 -80 250 -83 5 -1 33 -11 65 -24 31 -12 368 -122 385 -125 8
-2 15 -4 15 -5 0 -1 230 -80 248 -85 9 -2 68 -21 130 -42 61 -20 114 -38 117
-39 6 -1 37 -13 65 -24 16 -6 123 -40 145 -45 3 -1 12 -4 20 -8 8 -3 44 -15
80 -27 l65 -23 400 134 c220 73 402 134 405 134 3 1 12 4 20 8 14 5 208 70
220 73 3 0 12 3 20 7 16 6 1398 467 1415 471 6 2 18 6 28 9 9 4 25 10 35 14 9
3 22 7 27 8 6 1 216 71 468 155 l457 152 0 1164 c0 640 -2 1164 -3 1164 -2 0
-30 -9 -63 -20 -32 -12 -63 -22 -69 -23 -24 -7 -272 -89 -290 -97 -25 -11
-126 -43 -143 -46 -8 -1 -21 -6 -30 -10 -9 -4 -19 -8 -22 -9 -49 -14 -180 -58
-195 -64 -11 -5 -45 -17 -75 -26 -30 -9 -62 -19 -70 -22 -8 -4 -17 -7 -20 -8
-3 0 -36 -11 -75 -24 -86 -28 -93 -30 -103 -32 -4 -1 -29 -10 -57 -21 -27 -11
-57 -21 -65 -23 -8 -2 -76 -24 -150 -49 -74 -26 -142 -48 -150 -51 -21 -5
-276 -91 -395 -132 -55 -19 -107 -36 -115 -38 -8 -2 -15 -4 -15 -5 0 -1 -8 -3
-19 -5 -10 -2 -41 -12 -70 -23 -55 -22 -352 -121 -376 -127 -8 -2 -15 -4 -15
-5 0 -1 -8 -3 -19 -5 -10 -2 -41 -12 -70 -23 -55 -21 -352 -121 -376 -127 -8
-2 -15 -4 -15 -5 0 -1 -8 -3 -19 -5 -10 -2 -41 -12 -70 -23 -73 -29 -329 -113
-341 -113 -9 0 -117 35 -160 52 -49 19 -142 51 -164 55 -13 3 -31 9 -40 13
-14 8 -19 10 -33 11 -2 0 -196 66 -433 145 -236 80 -441 148 -454 151 -13 3
-32 9 -43 15 -10 5 -18 6 -18 2 0 -4 -5 -2 -12 5 -7 7 -18 12 -24 12 -7 0 -25
5 -41 11 -15 6 -28 10 -28 9 0 0 -37 12 -82 29 -46 16 -83 27 -83 25 0 -3 -10
1 -22 7 -12 7 -43 18 -68 25 -25 7 -85 27 -135 44 -49 18 -94 33 -100 34 -5 2
-17 6 -25 9 -8 3 -87 29 -175 57 -88 29 -169 56 -180 60 -17 7 -929 312 -945
316 -3 0 -12 3 -20 7 -8 3 -53 18 -100 33 -47 15 -90 29 -97 31 -7 3 -12 -6
-12 -24z"/>
<path d="M1240 5103 c0 -21 0 -46 0 -55 0 -10 0 -45 0 -78 0 -33 -1 -67 -1
-75 0 -8 0 -44 0 -80 0 -36 0 -72 0 -80 0 -8 0 -44 0 -80 0 -36 0 -72 0 -80 0
-8 0 -44 0 -80 0 -36 0 -72 1 -80 0 -75 -1 -127 -2 -138 -1 -7 2 -25 6 -41 4
-15 3 -25 -2 -22 -4 2 -6 -10 -4 -27 3 -30 3 -130 0 -152 -1 -6 2 -23 6 -39 4
-15 3 -25 -2 -22 -4 2 -6 -10 -4 -27 3 -30 3 -130 0 -152 -1 -6 2 -23 6 -39 4
-15 3 -25 -1 -23 -7 5 -9 -36 -3 -53 5 -13 2 -101 -3 -106 -3 -3 -4 -11 -1
-18 9 -23 10 -86 2 -86 -5 0 -7 -4 -3 -10 8 -13 10 -118 3 -126 -4 -3 -5 -11
-2 -18 9 -23 10 -86 2 -86 -5 0 -7 -4 -3 -10 5 -9 9 -104 5 -125 -1 -5 -1 -14
0 -20 5 -22 3 -106 -3 -111 -3 -3 -1 -19 3 -35 5 -16 5 -42 0 -58 -10 -36 14
-66 62 -76 18 -4 39 -11 48 -15 8 -5 62 -23 120 -41 58 -18 110 -35 115 -39 6
-4 30 -12 55 -19 25 -6 54 -16 65 -20 29 -12 177 -61 200 -66 11 -3 29 -9 40
-13 11 -5 38 -15 60 -21 22 -7 49 -16 60 -20 11 -5 65 -23 120 -40 55 -18 109
-36 120 -40 11 -5 65 -23 120 -40 55 -18 109 -36 120 -41 11 -4 67 -23 125
-41 58 -18 110 -35 115 -39 6 -4 33 -13 60 -20 28 -7 55 -16 60 -19 6 -3 12
-6 15 -6 13 -2 277 -88 295 -96 18 -8 194 -67 220 -73 11 -3 40 -14 70 -26 11
-4 67 -23 125 -41 58 -18 110 -35 115 -39 6 -4 30 -12 55 -19 25 -6 54 -16 65
-20 11 -5 38 -14 60 -20 22 -7 49 -16 60 -20 30 -12 118 -42 130 -45 19 -4 90
-27 110 -36 11 -5 65 -22 120 -39 55 -17 109 -35 120 -40 11 -5 65 -23 120
-40 55 -18 107 -36 115 -40 8 -4 24 -7 35 -6 11 1 184 57 385 124 201 68 370
124 375 125 6 2 17 6 25 9 23 9 1193 398 1210 402 8 3 56 18 105 36 50 17 95
32 100 33 6 2 17 6 25 9 27 10 445 149 455 151 6 1 15 4 20 7 6 3 187 63 402
135 l393 129 0 1163 c0 656 -4 1162 -9 1162 -5 0 -28 -7 -52 -16 -24 -8 -55
-18 -68 -20 -13 -3 -37 -12 -52 -20 -16 -8 -31 -14 -34 -14 -3 0 -6 0 -7 -1
-2 0 -10 -2 -18 -4 -8 -1 -62 -20 -120 -40 -58 -20 -109 -38 -115 -39 -18 -4
-329 -107 -350 -116 -19 -8 -124 -43 -135 -45 -10 -2 -326 -107 -345 -115 -11
-5 -65 -23 -120 -40 -55 -17 -109 -35 -120 -40 -19 -8 -245 -83 -255 -85 -3 0
-30 -9 -60 -20 -30 -11 -57 -20 -60 -20 -3 0 -63 -21 -135 -45 -71 -24 -132
-45 -135 -45 -33 -8 -67 -19 -75 -24 -5 -3 -14 -6 -20 -7 -5 -2 -145 -48 -310
-104 -165 -55 -307 -102 -315 -104 -8 -2 -142 -47 -298 -99 l-283 -95 -52 14
c-29 8 -61 19 -72 24 -19 8 -959 322 -980 327 -5 1 -77 25 -160 53 -82 29
-154 53 -160 54 -5 2 -17 6 -25 9 -19 7 -121 40 -135 43 -5 2 -57 19 -115 39
-58 20 -112 38 -120 40 -26 7 -324 106 -345 115 -19 8 -539 182 -560 187 -5 1
-71 23 -145 48 -74 25 -142 48 -150 50 -8 2 -116 38 -240 80 -123 41 -228 75
-232 75 -4 0 -8 -17 -8 -37z"/>
<path d="M6440 1463 c0 -4 -26 -9 -58 -9 -69 -2 -114 -8 -130 -18 -7 -4 -12
-5 -12 -2 0 3 -18 -1 -40 -9 -22 -8 -44 -15 -48 -16 -4 -1 -15 -4 -24 -7 -10
-2 -18 -9 -18 -15 0 -6 -3 -7 -6 -4 -4 4 -32 -7 -63 -24 -170 -93 -290 -251
-342 -449 -27 -104 -16 -345 19 -425 94 -211 208 -331 388 -411 144 -64 373
-85 529 -49 61 14 161 49 195 68 19 11 47 27 63 34 15 8 57 43 93 77 57 54 64
65 52 77 -8 8 -48 43 -88 79 -40 36 -89 80 -109 97 -20 18 -39 33 -42 33 -3 0
-26 -19 -51 -43 -112 -106 -276 -140 -423 -88 -142 50 -243 188 -241 329 1 23
-2 42 -6 42 -4 0 -5 6 -3 13 3 6 6 28 8 47 21 189 149 319 336 339 128 13 245
-27 334 -115 l45 -44 109 97 c59 54 116 105 126 114 18 16 16 19 -37 72 -81
82 -221 159 -331 182 -11 2 -31 7 -45 10 -14 3 -55 8 -92 10 -37 1 -71 6 -77
10 -6 3 -11 3 -11 -2z"/>
<path d="M1838 1445 c-26 -6 -50 -10 -53 -7 -2 3 -10 0 -17 -6 -7 -6 -16 -11
-21 -11 -18 -2 -63 -14 -72 -21 -5 -4 -26 -13 -45 -20 -19 -8 -39 -18 -45 -22
-5 -5 -31 -22 -58 -39 -127 -83 -233 -237 -276 -404 -19 -74 -23 -270 -7 -340
23 -100 74 -209 134 -285 46 -58 133 -140 150 -140 6 0 12 -4 12 -10 0 -15
158 -86 230 -104 103 -24 129 -27 230 -28 94 0 127 4 205 23 62 15 70 17 70
19 0 1 7 3 16 5 58 11 184 89 255 159 l54 53 -58 54 c-110 103 -185 169 -191
169 -4 0 -27 -18 -51 -41 -108 -98 -233 -133 -375 -104 -83 17 -215 99 -215
134 0 6 -4 11 -8 11 -11 0 -49 83 -61 135 -16 66 -11 186 11 250 47 139 137
218 283 247 134 28 273 -13 368 -107 44 -43 46 -43 65 -27 41 36 186 168 209
190 l23 23 -51 50 c-91 91 -209 154 -354 189 -69 17 -298 21 -357 5z"/>
<path d="M7456 1439 c-260 -55 -409 -217 -408 -444 0 -167 100 -290 288 -356
32 -11 68 -22 79 -25 11 -2 81 -20 155 -39 74 -19 144 -37 155 -40 81 -20 121
-65 110 -121 -12 -66 -72 -95 -204 -98 -141 -4 -279 30 -423 105 l-58 30 -10
-26 c-5 -14 -21 -49 -34 -78 -13 -29 -37 -81 -54 -117 -34 -74 -35 -72 48
-114 133 -68 314 -106 505 -107 160 -1 256 17 365 69 165 77 260 217 260 383
0 149 -77 263 -225 334 -63 30 -273 91 -345 100 -15 2 -38 8 -49 15 -12 6 -21
8 -21 5 0 -2 -26 5 -57 17 -54 20 -80 41 -94 78 -6 16 15 76 34 94 14 14 62
34 97 41 30 6 155 6 190 0 14 -2 41 -7 60 -11 40 -7 190 -62 204 -75 19 -17
32 -9 45 29 7 20 25 62 38 92 14 30 27 63 29 74 2 10 8 24 15 32 6 8 8 14 4
14 -4 0 -2 7 5 16 11 12 11 17 -1 28 -16 16 -141 66 -163 66 -8 0 -17 4 -20 9
-3 5 -16 9 -28 9 -13 0 -45 6 -73 12 -85 21 -316 20 -419 -1z"/>
<path d="M2725 1430 l-40 -5 0 -695 1 -695 559 0 560 0 2 147 c1 93 -2 150 -9
154 -13 8 -354 8 -367 -1 -6 -3 -11 -3 -11 2 0 9 -272 9 -287 0 -5 -3 -20 0
-33 6 -23 12 -24 16 -25 122 0 61 1 115 2 120 2 7 111 10 312 10 l308 0 1 147
0 148 -51 1 c-29 0 -168 0 -309 -1 -240 0 -258 1 -259 17 -1 10 -2 63 -3 119
l-1 101 347 0 c192 0 351 2 354 6 8 8 8 286 0 294 -7 7 -995 10 -1051 3z"/>
<path d="M3971 1430 l-34 -5 -1 -688 c-1 -449 2 -691 9 -695 6 -4 88 -7 182
-7 166 0 173 1 174 20 0 11 1 172 1 358 1 268 3 334 13 320 26 -38 225 -364
225 -369 0 -3 5 -10 11 -17 5 -7 32 -49 60 -93 l49 -82 88 1 c82 1 88 2 103
26 9 14 16 30 16 35 1 5 5 12 10 15 5 3 31 44 58 91 27 47 53 87 57 88 4 2 8
9 8 15 1 7 21 44 45 82 25 39 48 77 52 85 3 8 21 38 38 66 18 28 36 61 40 73
4 12 10 20 13 16 3 -3 7 -165 8 -361 1 -195 4 -358 8 -362 4 -4 86 -7 182 -7
148 0 174 2 175 15 4 76 1 311 -4 316 -3 3 -2 17 3 29 5 13 6 36 1 52 -4 15
-5 42 -1 58 3 17 3 51 0 78 -4 26 -3 47 2 47 4 0 3 11 -2 25 -5 13 -5 27 -1
30 5 3 6 20 2 37 -4 18 -5 44 -1 58 4 14 5 34 3 45 -3 11 -4 30 -4 43 0 12 0
37 0 55 1 17 0 57 -2 87 -1 30 1 67 4 82 4 14 5 29 1 32 -9 9 -9 58 -1 88 4
14 5 29 1 32 -3 3 -5 47 -5 96 0 76 -2 90 -16 91 -9 0 -81 1 -160 1 -161 0
-152 4 -197 -80 -10 -20 -52 -90 -91 -155 -40 -66 -73 -120 -73 -122 0 -1 -29
-51 -65 -110 -36 -59 -65 -109 -65 -112 0 -2 -13 -24 -30 -48 -16 -24 -30 -46
-30 -49 0 -3 -18 -33 -39 -67 l-39 -62 -24 40 c-12 21 -28 48 -35 58 -7 11
-46 76 -88 145 -42 69 -116 190 -165 270 -49 80 -108 178 -132 218 -37 64 -46
72 -72 73 -127 4 -236 3 -265 -1z"/>
</g>
</svg>
